# xmcd
#
# Track frame offsets: 
#        150
#        13565
#        28375
#        58065
#        69845
#        76435
#        89865
#        99612
#        111350
#        137937
#        143635
#        151005
#        162962
#        177945
#        183550
#        194565
#        204550
#
# Disc length: 2847 seconds
#
# Revision: 2
# Processed by: cddbd v1.5.2PL0 Copyright (c) Steve Scherf et al.
# Submitted via: ExactAudioCopy v0.99pb4
#
DISCID=f50b1d11
DTITLE=Anahata - Chants and Mantra's of the world
DYEAR=2004
DGENRE=New Age
TTITLE0=Gayatra Mantra (India)
TTITLE1=Anikuni (Turtle Island)
TTITLE2=Overtone Solo Peter Solo
TTITLE3=Natavaran N Agara (India)
TTITLE4=Kyrie (Ghana)
TTITLE5=Jaya Guru (India)
TTITLE6=He Moved Through The Fair (Clare Solo)
TTITLE7=Avaloki Teshvara (Buddhist Mantra)
TTITLE8=Hyundai (Scotland)
TTITLE9=Jaya Radha (Wemdy Solo)
TTITLE10=Padmasambhaya (Buddhist)
TTITLE11=Bless The Lord (Taize)
TTITLE12=Aksham Oldu (Turkey)
TTITLE13=Santo (Argentine)
TTITLE14=Eli Eli (Hebrrew)
TTITLE15=The Water is Wide (English)
TTITLE16=Wolf Song (Turtle Island)
EXTD=YEAR: 2004
EXTT0=
EXTT1=
EXTT2=
EXTT3=
EXTT4=
EXTT5=
EXTT6=
EXTT7=
EXTT8=
EXTT9=
EXTT10=
EXTT11=
EXTT12=
EXTT13=
EXTT14=
EXTT15=
EXTT16=
PLAYORDER=
